<svg width="425" height="357" viewBox="0 0 425 357" fill="none" xmlns="http://www.w3.org/2000/svg">
<path d="M395.802 317.275C406.645 317.275 415.434 326.064 415.434 336.906C415.434 346.974 407.856 355.272 398.092 356.406L395.802 356.538H42.4372C31.595 356.538 22.8058 347.749 22.8058 336.906C22.8058 326.838 30.3842 318.541 40.1477 317.407L42.4372 317.275H395.802ZM139.226 6.64327L268.059 111.874L357.824 95.0913C379.881 90.9628 402.369 99.7282 415.813 117.695L418.977 121.996C422.509 127.038 425.181 132.289 423.799 139.046C419.456 160.263 403.5 177.207 382.581 182.812L85.7709 262.34C73.8385 265.538 61.1789 260.949 54.0688 250.846L1.79509 176.575C-2.13195 170.994 0.690962 163.21 7.28149 161.443L39.1632 152.901C48.6735 150.353 58.828 152.727 66.2237 159.225L80.8801 172.105L81.0812 172.14L163.511 139.937C163.635 139.888 163.676 139.733 163.591 139.629L70.8381 26.6518C66.3109 21.1375 68.9925 12.7887 75.8839 10.9421L112.974 1.00376C122.123 -1.44762 131.892 0.650986 139.226 6.64327Z" fill="white"/>
</svg>
