<svg width="355" height="357" viewBox="0 0 355 357" fill="none" xmlns="http://www.w3.org/2000/svg">
<path d="M304.299 355.915C304.299 354.942 304.036 353.986 303.538 353.149C303.04 352.313 302.325 351.626 301.47 351.161C280.018 339.631 260.453 321.983 251.847 313.124C250.569 311.783 248.863 310.93 247.023 310.712C245.183 310.493 243.325 310.923 241.768 311.927C201.884 337.618 153.324 337.634 113.432 311.967C111.862 310.953 109.985 310.521 108.129 310.747C106.273 310.973 104.555 311.842 103.273 313.203C94.7386 322.142 75.3873 339.591 53.8013 351.042C52.943 351.473 52.2093 352.117 51.6698 352.912C51.1302 353.706 50.8029 354.626 50.7187 355.583C50.6544 356.397 50.7781 357.216 51.0803 357.975C51.3824 358.734 51.855 359.414 52.4615 359.961C53.068 360.509 53.7922 360.909 54.5782 361.133C55.3643 361.356 56.191 361.396 56.9948 361.249C73.5171 357.936 89.4848 350.408 104.7 342.365C105.676 341.851 106.761 341.578 107.864 341.57C108.967 341.562 110.055 341.818 111.039 342.317C131.638 352.79 154.42 358.249 177.529 358.249C200.637 358.249 223.419 352.79 244.018 342.317C245.013 341.813 246.114 341.554 247.229 341.563C248.344 341.571 249.442 341.846 250.429 342.365C265.564 350.289 281.508 357.889 297.975 361.225C298.753 361.374 299.555 361.349 300.322 361.15C301.089 360.95 301.802 360.583 302.409 360.074C303.016 359.564 303.503 358.926 303.832 358.206C304.162 357.485 304.327 356.7 304.315 355.907L304.299 355.915Z" fill="white"/>
<path d="M352.407 176.642C349.642 169.994 343.77 164.843 335.845 162.101L316.977 154.589V88.753C316.977 75.3023 311.634 62.4025 302.123 52.8914C292.612 43.3803 279.712 38.037 266.261 38.037H240.903V31.6975C240.903 23.2908 237.564 15.2284 231.619 9.28399C225.675 3.33955 217.613 0 209.206 0H145.811C137.404 0 129.342 3.33955 123.397 9.28399C117.453 15.2284 114.113 23.2908 114.113 31.6975V38.037H88.7553C75.3046 38.037 62.4048 43.3803 52.8937 52.8914C43.3826 62.4025 38.0393 75.3023 38.0393 88.753V154.644L19.3536 162.085C11.4768 164.7 5.38293 170.01 2.59355 176.698C0.652078 181.365 -1.56675 188.584 1.56338 197.666L1.64262 197.903L38.6178 292.552C39.98 296.029 42.3634 299.013 45.4541 301.109C48.5448 303.205 52.198 304.316 55.9325 304.296C56.3288 304.296 56.725 304.296 57.145 304.256C81.9641 302.672 101.521 290.571 114.676 279.208C133.465 295.429 155.566 304.296 177.508 304.296C199.451 304.296 221.433 295.421 240.222 279.176C253.368 290.555 272.95 302.687 297.761 304.256C301.689 304.532 305.602 303.548 308.932 301.448C312.263 299.347 314.837 296.239 316.28 292.576L353.247 198.276C355.846 191.865 355.545 184.202 352.407 176.642ZM187.81 103.183L186.907 102.866C180.786 100.941 174.222 100.941 168.102 102.866L167.642 103.009L67.7399 142.813C67.2588 143.005 66.738 143.076 66.2232 143.019C65.7084 142.963 65.2152 142.782 64.7868 142.491C64.3583 142.2 64.0076 141.809 63.7654 141.351C63.5232 140.893 63.3968 140.383 63.3973 139.865V88.753C63.3973 82.0277 66.0689 75.5778 70.8245 70.8222C75.58 66.0667 82.0299 63.395 88.7553 63.395H266.261C272.987 63.395 279.437 66.0667 284.192 70.8222C288.948 75.5778 291.619 82.0277 291.619 88.753V139.818C291.62 140.336 291.493 140.846 291.251 141.303C291.009 141.761 290.658 142.152 290.23 142.443C289.801 142.734 289.308 142.916 288.793 142.972C288.279 143.028 287.758 142.957 287.277 142.766L187.81 103.183Z" fill="white"/>
</svg>
