<svg width="308" height="361" viewBox="0 0 308 361" fill="none" xmlns="http://www.w3.org/2000/svg">
<path d="M135.439 246.835C133.527 248.752 130.641 249.567 127.881 248.708L111.658 243.651C107.692 242.417 105.478 238.209 106.712 234.242C107.952 230.277 112.165 228.062 116.131 229.296L132.353 234.341C136.32 235.575 138.534 239.794 137.294 243.761C136.92 244.963 136.27 246.008 135.439 246.835Z" fill="white"/>
<path d="M66.0212 358.799C65.2167 359.604 64.2366 360.221 63.1345 360.595C61.0354 361.311 58.7333 361.069 56.833 359.934L3.65466 328.028C1.73183 326.871 0.421043 324.922 0.0854124 322.707C-0.250923 320.493 0.416106 318.234 1.90881 316.571L66.0713 244.654C67.0732 243.519 68.4066 242.726 69.8774 242.362L75.7883 240.897C78.2393 231.973 84.8165 212.374 97.9378 199.242C97.9435 199.242 97.9435 199.242 97.9435 199.242L241.8 55.3846C243.21 53.9744 245.116 53.1812 247.11 53.1812C249.104 53.1812 251.021 53.9744 252.431 55.3846L273.704 76.6576C276.646 79.5993 276.646 84.3588 273.704 87.3005L120.984 240.016L116.021 274.762C115.668 277.241 114.11 279.378 111.862 280.469L93.8334 289.227L67.7121 356.221C67.3271 357.202 66.7482 358.072 66.0212 358.799Z" fill="white"/>
<path d="M247.111 53.1812C245.117 53.1812 153.771 148.179 156.706 151.12L177.981 172.393C179.391 173.804 181.297 174.597 183.291 174.597C185.295 174.597 187.201 173.804 188.612 172.393L273.705 87.2998C276.647 84.3581 276.647 79.5986 273.705 76.6569L252.432 55.3839C251.022 53.9744 249.105 53.1812 247.111 53.1812Z" fill="white"/>
<path d="M257.753 103.253L268.384 92.6212L236.479 60.7053L225.838 71.3475L257.753 103.253Z" fill="white"/>
<path d="M236.479 124.527L247.111 113.895L215.207 81.9791L204.564 92.6212L236.479 124.527Z" fill="white"/>
<path d="M215.207 145.8L225.838 135.168L193.933 103.253L183.291 113.895L215.207 145.8Z" fill="white"/>
<path d="M193.933 167.073L204.564 156.43L172.659 124.527L162.028 135.157L193.933 167.073Z" fill="white"/>
<path d="M305.61 12.8484L119.211 199.242C116.275 202.184 111.515 202.184 108.574 199.242C105.638 196.312 105.638 191.553 108.574 188.611L294.979 2.20627C297.909 -0.735425 302.679 -0.735425 305.61 2.20627C308.551 5.14797 308.551 9.90744 305.61 12.8484Z" fill="white"/>
<path d="M116.77 186.981C113.961 185.813 110.728 186.463 108.574 188.611L97.9427 199.242C97.9427 199.242 97.9427 199.242 97.9371 199.242C84.8165 212.373 78.2386 231.973 75.7876 240.896L69.8767 242.362C68.4059 242.725 67.0782 243.519 66.0706 244.653L1.90881 316.571C0.416106 318.234 -0.250218 320.493 0.0854124 322.707C0.421748 324.922 1.73254 326.871 3.65466 328.028L56.833 359.934C58.7333 361.068 61.0354 361.31 63.1345 360.595C64.2359 360.221 65.2167 359.604 66.0212 358.799C66.7482 358.072 67.3264 357.201 67.7121 356.221L93.8334 289.227L111.862 280.469C114.11 279.378 115.668 277.241 116.021 274.762L121.342 237.537C121.392 237.184 121.414 236.831 121.414 236.479V193.932C121.414 190.892 119.585 188.149 116.77 186.981Z" fill="white"/>
</svg>
