<svg width="317" height="357" viewBox="0 0 317 357" fill="none" xmlns="http://www.w3.org/2000/svg">
<path d="M230.655 101.15L316.802 15.0031L301.798 0L285.574 16.224L274.692 5.34105L259.688 20.3441L270.571 31.2277L215.652 86.1465L208.151 93.6477L171.755 130.044L133.33 168.468L126.294 161.432L136.308 151.418L139.152 154.262L154.155 139.259L133.464 118.567L118.461 133.57L121.306 136.415L46.7921 210.926L43.948 208.081L28.9449 223.085L49.6356 243.776L64.6386 228.773L61.7945 225.929L71.8086 215.915L78.8454 222.951L69.4972 232.299L0 301.796L55.2046 357L104.915 274.629L136.633 333.475L175.889 294.22L161.05 266.689L183.221 244.518L164.862 208.813L172.705 200.969L199.738 228.002L234.723 193.016L207.69 165.983L251.588 122.085L230.655 101.15ZM51.0426 322.831L30.0082 301.797L84.5016 247.303L85.3802 248.181L92.0614 254.863L51.0426 322.831ZM86.8131 200.911L111.289 176.435L118.326 183.472L93.8499 207.948L86.8131 200.911ZM141.786 298.315L118.521 255.152L126.453 247.22L149.718 290.383L141.786 298.315ZM150.542 247.192L142.115 231.558L149.105 224.568L157.276 240.458L150.542 247.192ZM157.703 185.965L105.436 238.231L99.5054 232.3L171.754 160.052L174.719 163.017L177.685 165.983L157.703 185.965ZM199.738 197.995L187.708 185.965L192.688 180.985L204.718 193.015L199.738 197.995ZM192.688 150.979L186.756 145.048L215.651 116.153L221.582 122.085L192.688 150.979Z" fill="white"/>
<path d="M51.0426 322.831L30.0082 301.797L84.5016 247.303L85.3802 248.181L92.0614 254.863L51.0426 322.831Z" fill="white"/>
<path d="M141.786 298.315L118.521 255.152L126.453 247.22L149.718 290.383L141.786 298.315Z" fill="white"/>
<path d="M199.738 197.995L187.708 185.965L192.688 180.985L204.718 193.015L199.738 197.995Z" fill="white"/>
<path d="M157.703 185.965L105.436 238.231L99.5054 232.3L171.754 160.052L174.719 163.017L177.685 165.983L157.703 185.965Z" fill="white"/>
<path d="M192.688 150.979L186.756 145.048L215.651 116.153L221.582 122.085L192.688 150.979Z" fill="white"/>
</svg>
