<svg viewBox="0 0 361 360" fill="none" xmlns="http://www.w3.org/2000/svg">
<path fill-rule="evenodd" clip-rule="evenodd" d="M297.487 146.786L335.323 108.95C346.81 97.4627 352.553 91.7193 355.624 85.5237C361.465 73.7356 361.465 59.8955 355.624 48.1073C352.553 41.9117 346.81 36.1683 335.323 24.6815L335.323 24.6814C323.836 13.1947 318.093 7.45135 311.898 4.38114C300.109 -1.46038 286.269 -1.46038 274.481 4.38114C268.286 7.45131 262.542 13.1945 251.056 24.6808L251.056 24.6812L251.055 24.6815L212.741 62.9958C233.047 97.7689 262.249 126.748 297.487 146.786ZM182.1 93.6368L37.3597 238.377C28.405 247.332 23.9276 251.809 20.9838 257.31C18.04 262.81 16.7982 269.019 14.3146 281.437L1.35005 346.26C-0.0513723 353.267 -0.752081 356.771 1.24103 358.764C3.23413 360.757 6.73768 360.056 13.7448 358.655L78.5676 345.69L78.5679 345.69C90.9856 343.207 97.1946 341.965 102.695 339.021C108.196 336.077 112.673 331.6 121.628 322.645L266.766 177.507C232.603 156.11 203.705 127.411 182.1 93.6368Z" fill="white"/>
</svg>