<svg width="24" height="29" viewBox="0 0 24 29" fill="none" xmlns="http://www.w3.org/2000/svg">
<path fill-rule="evenodd" clip-rule="evenodd" d="M12 0.434082V7.46702L12 7.54356V7.54357V7.54358V7.54359C11.9999 8.14007 11.9998 8.71975 12.0641 9.19786C12.1365 9.73687 12.3131 10.3519 12.824 10.8628C13.3349 11.3737 13.95 11.5503 14.489 11.6228C14.9671 11.687 15.5468 11.6869 16.1432 11.6868H16.1433H16.1433H16.1433L16.2198 11.6868H23.2527V20.1263C23.2527 24.1048 23.2527 26.094 22.0168 27.3299C20.7809 28.5659 18.7916 28.5659 14.8132 28.5659H9.18685C5.20841 28.5659 3.2192 28.5659 1.98326 27.3299C0.747314 26.094 0.747314 24.1048 0.747314 20.1263V8.87362C0.747314 4.89518 0.747314 2.90596 1.98326 1.67002C3.2192 0.434082 5.20841 0.434082 9.18685 0.434082H12ZM14.8132 0.440582V7.46702C14.8132 8.16986 14.8162 8.55549 14.8522 8.82301L14.8536 8.83325L14.8638 8.83466C15.1313 8.87063 15.517 8.87361 16.2198 8.87361H23.2462C23.2319 8.2946 23.1859 7.91145 23.0386 7.55573C22.8245 7.03875 22.4179 6.63221 21.6048 5.81912L21.6048 5.81911L17.8677 2.082C17.0546 1.26891 16.6481 0.862363 16.1311 0.648222C15.7754 0.500879 15.3922 0.454918 14.8132 0.440582ZM6.37367 15.9065C6.37367 15.1297 7.00342 14.5 7.78026 14.5L16.2198 14.5C16.9966 14.5 17.6264 15.1297 17.6264 15.9065C17.6264 16.6834 16.9966 17.3131 16.2198 17.3131L7.78026 17.3131C7.00342 17.3131 6.37367 16.6834 6.37367 15.9065ZM7.78026 20.1263C7.00342 20.1263 6.37367 20.7561 6.37367 21.5329C6.37367 22.3098 7.00342 22.9395 7.78026 22.9395H13.4066C14.1835 22.9395 14.8132 22.3098 14.8132 21.5329C14.8132 20.7561 14.1835 20.1263 13.4066 20.1263H7.78026Z" fill="black"/>
</svg>
