<svg viewBox="0 0 552 360" fill="none" xmlns="http://www.w3.org/2000/svg">
<path fill-rule="evenodd" clip-rule="evenodd" d="M66.0401 174.073C92.9423 109.856 174.62 71.0471 268.545 71.0471C362.227 71.0471 446.78 109.815 477.126 175.242C485.029 192.282 505.25 199.689 522.291 191.786C539.331 183.882 546.738 163.661 538.835 146.621C492.561 46.8535 375.061 3.02368 268.545 3.02368C162.27 3.02368 45.6022 46.8116 3.29979 147.789C-3.95825 165.115 4.20285 185.043 21.5281 192.301C38.8534 199.559 58.7821 191.398 66.0401 174.073ZM267.323 195.465C218.368 195.465 179.615 216.972 167.266 248.506C160.416 265.997 140.685 274.623 123.194 267.774C105.703 260.924 97.0767 241.193 103.926 223.702C130.556 155.702 203.518 127.442 267.323 127.442C331.298 127.442 404.39 155.696 433.386 222.575C440.858 239.809 432.945 259.837 415.711 267.309C398.477 274.781 378.448 266.867 370.976 249.633C356.818 216.978 316.106 195.465 267.323 195.465ZM315.872 314.061C315.872 339.432 295.304 360 269.933 360C244.561 360 223.994 339.432 223.994 314.061C223.994 288.69 244.561 268.122 269.933 268.122C295.304 268.122 315.872 288.69 315.872 314.061Z" fill="white"/>
</svg>