<svg width="513" height="360" viewBox="0 0 513 360" fill="none" xmlns="http://www.w3.org/2000/svg">
<path fill-rule="evenodd" clip-rule="evenodd" d="M15.0254 15.0254C0 30.0508 0 54.2339 0 102.6V256.5C0 304.866 0 329.049 15.0254 344.075C30.0508 359.1 54.2339 359.1 102.6 359.1H410.4C458.766 359.1 482.949 359.1 497.975 344.075C513 329.049 513 304.866 513 256.5V102.6C513 54.2339 513 30.0508 497.975 15.0254C482.949 0 458.766 0 410.4 0H102.6C54.2339 0 30.0508 0 15.0254 15.0254ZM76.95 51.3C62.7839 51.3 51.3 62.7839 51.3 76.95C51.3 91.1161 62.7839 102.6 76.95 102.6H128.25C142.416 102.6 153.9 91.1161 153.9 76.95C153.9 62.7839 142.416 51.3 128.25 51.3H76.95ZM359.1 282.15C359.1 267.984 370.584 256.5 384.75 256.5H436.05C450.216 256.5 461.7 267.984 461.7 282.15C461.7 296.316 450.216 307.8 436.05 307.8H384.75C370.584 307.8 359.1 296.316 359.1 282.15ZM282.15 179.55C282.15 193.716 270.666 205.2 256.5 205.2C242.334 205.2 230.85 193.716 230.85 179.55C230.85 165.384 242.334 153.9 256.5 153.9C270.666 153.9 282.15 165.384 282.15 179.55ZM333.45 179.55C333.45 222.048 298.998 256.5 256.5 256.5C214.002 256.5 179.55 222.048 179.55 179.55C179.55 137.052 214.002 102.6 256.5 102.6C298.998 102.6 333.45 137.052 333.45 179.55Z" fill="white"/>
</svg>
