<svg width="361" height="361" viewBox="0 0 361 361" fill="none" xmlns="http://www.w3.org/2000/svg">
<path fill-rule="evenodd" clip-rule="evenodd" d="M137.392 189.975L83.9472 172.16C27.9824 153.505 0 144.178 0 127.037C0 109.895 27.9824 100.568 83.9472 81.9129L286.41 14.4254C325.788 1.29922 345.477 -5.26386 355.871 5.12938C366.264 15.5226 359.701 35.2118 346.575 74.5903L279.087 277.053C260.432 333.018 251.105 361 233.963 361C216.822 361 207.495 333.018 188.84 277.053L171.025 223.608L274.562 120.071C283.85 110.783 283.85 95.7252 274.562 86.4377C265.275 77.1501 250.217 77.1501 240.929 86.4377L137.392 189.975Z" fill="white"/>
</svg>
