<svg width="15" height="16" viewBox="0 0 15 16" fill="none" xmlns="http://www.w3.org/2000/svg">
<path d="M10.6341 4.94283V4.15771C10.6341 2.42328 9.22807 1.01724 7.49364 1.01724V1.01724C5.7592 1.01724 4.35316 2.42328 4.35316 4.15771V4.94283" stroke="white" stroke-width="1.57024" stroke-linecap="round"/>
<path fill-rule="evenodd" clip-rule="evenodd" d="M1.11745 4.84758C0.427582 5.53745 0.427582 6.64777 0.427582 8.86842V9.65354C0.427582 12.6144 0.427582 14.0948 1.3474 15.0147C2.26723 15.9345 3.74766 15.9345 6.70853 15.9345H8.27876C11.2396 15.9345 12.7201 15.9345 13.6399 15.0147C14.5597 14.0948 14.5597 12.6144 14.5597 9.65354V8.86842C14.5597 6.64777 14.5597 5.53745 13.8698 4.84758C13.18 4.15771 12.0696 4.15771 9.84899 4.15771H5.13829C2.91764 4.15771 1.80732 4.15771 1.11745 4.84758ZM7.49361 10.4387C7.92721 10.4387 8.27872 10.0872 8.27872 9.65355C8.27872 9.21994 7.92721 8.86843 7.49361 8.86843C7.06 8.86843 6.70849 9.21994 6.70849 9.65355C6.70849 10.0872 7.06 10.4387 7.49361 10.4387ZM9.84896 9.65355C9.84896 10.6791 9.19357 11.5515 8.27878 11.8749V13.5791H6.70855V11.8749C5.7937 11.5516 5.13825 10.6791 5.13825 9.65355C5.13825 8.35273 6.19278 7.2982 7.49361 7.2982C8.79443 7.2982 9.84896 8.35273 9.84896 9.65355Z" fill="white"/>
</svg>
