<svg width="474" height="361" viewBox="0 0 474 361" fill="none" xmlns="http://www.w3.org/2000/svg">
<path d="M0 184.943C0.127615 171.011 4.53077 157.454 12.614 146.107C20.6972 134.759 32.0704 126.168 45.1955 121.494L81.9022 26.7415C85.1721 19.0152 90.5897 12.389 97.5122 7.64908C104.435 2.90917 112.572 0.254488 120.958 0H352.337C360.723 0.254488 368.86 2.90917 375.782 7.64908C382.705 12.389 388.123 19.0152 391.392 26.7415L428.133 121.494C441.252 126.173 452.618 134.767 460.694 146.114C468.771 157.461 473.17 171.015 473.295 184.943V280.568C473.286 284.792 471.604 288.841 468.617 291.828C465.63 294.815 461.581 296.496 457.357 296.505H434.843V346.063C434.834 350.287 433.152 354.336 430.165 357.322C427.178 360.309 423.13 361.991 418.906 362H386.091C381.867 361.991 377.818 360.309 374.831 357.322C371.844 354.336 370.162 350.287 370.154 346.063V296.505H103.141V346.063C103.132 350.287 101.45 354.336 98.4633 357.322C95.4763 360.309 91.4277 361.991 87.2035 362H54.389C50.1648 361.991 46.1162 360.309 43.1292 357.322C40.1423 354.336 38.4603 350.287 38.4514 346.063V296.505H15.9375C11.7134 296.496 7.66474 294.815 4.67779 291.828C1.69084 288.841 0.00886504 284.792 0 280.568V184.943ZM105.356 185.144C105.356 178.309 103.329 171.627 99.5312 165.944C95.7338 160.261 90.3364 155.831 84.0215 153.215C77.7066 150.6 70.7579 149.915 64.054 151.249C57.3502 152.582 51.1923 155.874 46.3591 160.707C41.5259 165.54 38.2345 171.698 36.901 178.402C35.5675 185.106 36.2519 192.054 38.8676 198.369C41.4833 204.684 45.9129 210.081 51.5961 213.879C57.2794 217.676 63.961 219.703 70.7962 219.703C75.3346 219.703 79.8286 218.809 84.0215 217.073C88.2144 215.336 92.0242 212.79 95.2334 209.581C98.4425 206.372 100.988 202.562 102.725 198.369C104.462 194.176 105.356 189.682 105.356 185.144ZM86.6667 117.267H386.561L356.699 40.1962C355.635 38.6883 354.062 37.6159 352.27 37.1764H120.958C119.19 37.6305 117.643 38.7015 116.596 40.1962L86.6667 117.267ZM436.991 185.144C436.991 178.307 434.963 171.624 431.164 165.94C427.365 160.256 421.966 155.827 415.649 153.212C409.332 150.597 402.382 149.915 395.677 151.251C388.972 152.587 382.814 155.882 377.982 160.719C373.15 165.555 369.862 171.716 368.532 178.422C367.202 185.128 367.891 192.078 370.512 198.392C373.133 204.707 377.568 210.102 383.256 213.895C388.943 217.689 395.628 219.71 402.465 219.703C411.631 219.703 420.421 216.062 426.902 209.581C433.383 203.1 436.991 194.31 436.991 185.144Z" fill="white"/>
</svg>
