<svg width="548" height="357" viewBox="0 0 548 357" fill="none" xmlns="http://www.w3.org/2000/svg">
<path d="M60.3305 0L26.1651 81.3246H512.881L512.554 0.00119771H196.389V66.6363H178.414V0.00119771H158.425V66.6363H140.456V0.00119771H119.563V66.6363H101.588V0.00119771L60.3305 0ZM525.097 19.1259V67.8514H547.492V19.1259H525.097ZM33.4032 99.2989L58.0488 137.665L0 348.403L121.85 357L147.662 239.565H286.361L303.934 143.394L513.109 138.753L512.953 99.3001H33.402L33.4032 99.2989ZM281.072 143.902L267.686 217.172H152.583L168.138 146.409L183.153 146.076L180.488 188.618L197.579 204.887L198.781 164.562L228.369 145.072L281.073 143.902H281.072Z" fill="white"/>
</svg>
