<svg width="359" height="361" viewBox="0 0 359 361" fill="none" xmlns="http://www.w3.org/2000/svg">
<path d="M2.78885 313.246L35.7748 352.294C35.7748 352.294 47.4169 368.765 55.7873 356.415C64.1577 344.093 114.338 242.374 114.338 242.374C114.338 242.374 119.366 234.074 122.892 248.903C126.419 263.732 155.382 335.482 155.382 335.482C155.382 335.482 159.759 341.53 165.013 337.068C170.282 332.649 191.357 314.875 191.357 314.875C191.357 314.875 198.467 312.623 191.102 298.573C183.723 284.481 156.685 220.378 156.685 220.378C156.685 220.378 152.734 212.164 158.456 207.348C164.164 202.547 171.543 197.037 171.543 197.037C171.543 197.037 174.828 190.253 183.879 197.406C192.915 204.544 218.833 230.788 258.759 240.66C298.671 250.56 333.611 251.891 333.611 251.891C333.611 251.891 342.166 252.203 343.37 237.601C344.616 223.069 343.894 202.618 343.894 202.618C343.894 202.618 344.715 192.873 336.146 192.59C327.606 192.293 313.103 195.55 294.818 189.913C276.534 184.305 235.22 154.081 235.22 154.081C235.22 154.081 228.592 148.883 234.738 143.671C240.885 138.487 283.899 102.201 283.899 102.201C283.899 102.201 291.278 96.6917 286.83 91.423C282.397 86.1685 280.174 83.5341 280.174 83.5341L358.298 17.5623L343.455 0L265.331 65.9435L258.915 60.1508C258.915 60.1508 253.207 55.1796 248.378 59.2585C243.562 63.2809 193.141 105.09 193.141 105.09C193.141 105.09 178.936 90.0633 168.413 98.9436C157.889 107.824 93.8295 161.955 93.8295 161.955C93.8295 161.955 91.0393 165.794 93.2346 173.711C95.4157 181.656 99.4239 187.265 95.4724 190.607C91.535 193.922 70.8994 211.356 70.8994 211.356C70.8994 211.356 65.135 216.979 65.8573 227.658C66.5938 238.309 60.7019 250.008 49.3006 259.667C37.9134 269.298 5.04079 296.293 5.04079 296.293C5.04079 296.293 -4.6043 304.465 2.78885 313.246Z" fill="white"/>
<path d="M298.529 44.713C298.529 44.713 272.37 13.7099 267.781 8.29959C263.192 2.86095 249.851 -1.92619 248.222 17.1516C246.395 39.1186 244.355 68.677 244.355 68.677L267.172 69.4277C267.172 69.4277 266.053 57.3182 264.41 51.2422C262.342 43.6791 265.926 39.9684 270.019 44.8405C274.112 49.6418 281.803 58.7062 281.803 58.7062L298.529 44.713Z" fill="white"/>
<path d="M157.323 230.647C157.323 230.647 164.574 224.528 170.367 219.642C176.16 214.756 181.768 203.779 176.939 189.248C172.123 174.731 191.102 191.33 191.102 191.33C191.102 191.33 201.059 214.161 184.077 228.48C167.025 242.912 159.49 248.634 159.49 248.634L157.323 230.647Z" fill="white"/>
</svg>
