<svg width="459" height="361" viewBox="0 0 459 361" fill="none" xmlns="http://www.w3.org/2000/svg">
<path fill-rule="evenodd" clip-rule="evenodd" d="M20.2168 45.939V30.2273C20.2168 28.8252 20.7414 27.4722 21.6924 26.4329L44.2477 1.81873C45.3114 0.661803 46.8115 0 48.3852 0H94.3192C102.07 0 108.374 6.30429 108.374 14.0547V45.939H265.216V33.9726C265.216 32.5705 265.741 31.2175 266.692 30.1783L289.247 5.56406C290.311 4.40713 291.811 3.74533 293.385 3.74533H314.003C321.754 3.74533 328.058 10.0496 328.058 17.8001V45.939H340.172C345.526 45.939 350.141 49.1699 352.17 53.7838C353.124 53.5617 354.118 53.4443 355.139 53.4443H382.42C389.641 53.4443 395.518 59.3221 395.518 66.5431V71.8768H444.399C452.149 71.8768 458.453 78.1811 458.453 85.9315V102.403C458.453 110.149 452.149 116.453 444.399 116.453H395.518V121.791C395.518 129.012 389.641 134.89 382.42 134.89H355.139C354.505 134.89 353.881 134.845 353.271 134.757V137.003C353.271 144.224 347.393 150.102 340.172 150.102H321.324L312.651 177.78C312.155 185.084 306.057 190.874 298.63 190.874H291.09V232.381C291.09 240.127 284.786 246.431 277.036 246.431H222.179C220.807 246.431 219.483 245.926 218.454 245.019L182.771 213.371V294.787L197.149 304.371C198.713 305.41 199.649 307.165 199.649 309.043V321.7C199.649 324.798 197.139 327.313 194.036 327.313H178.824V347.02C178.824 354.771 172.52 361.075 164.77 361.075H107.438C99.6873 361.075 93.383 354.771 93.383 347.02V327.313H85.6571C84.157 327.313 82.7158 326.71 81.6618 325.642C80.6078 324.573 80.0244 323.127 80.044 321.627L81.4363 215.978C81.4755 212.905 83.9756 210.439 87.0493 210.439C97.8343 210.439 106.609 201.664 106.609 190.879H113.027H117.835C117.835 205.963 106.933 218.547 92.5938 221.165L91.3437 316.087H188.423V312.048L174.045 302.464C172.481 301.425 171.544 299.67 171.544 297.792V190.874H113.028H86.4461C85.2548 190.874 84.0881 190.492 83.1272 189.791L29.0129 150.102H13.0988C5.8778 150.102 0 144.224 0 137.003V59.0378C0 51.8168 5.8778 45.939 13.0988 45.939H20.2168ZM97.1478 45.939V14.0547C97.1478 12.5203 95.8536 11.2261 94.3192 11.2261H50.8559L31.443 32.4088V45.939H97.1478ZM104.609 327.313V347.02C104.609 348.555 105.903 349.849 107.438 349.849H164.77C166.304 349.849 167.598 348.555 167.598 347.02V327.313H104.609ZM224.307 235.205L182.771 198.369V190.874H215.513V197.835C215.513 212.517 227.46 224.464 242.142 224.464C245.24 224.464 247.755 221.949 247.755 218.851C247.755 215.753 245.245 213.238 242.142 213.238C233.646 213.238 226.739 206.326 226.739 197.835V190.874H279.864V232.381C279.864 233.911 278.57 235.205 277.036 235.205H224.307ZM48.0006 150.102L88.2844 179.648H298.63C300.164 179.648 301.459 178.354 301.459 176.824C301.459 176.255 301.547 175.687 301.714 175.148L309.558 150.102H48.0006ZM316.832 45.939H276.442V36.1492L295.855 14.9666H314.003C315.538 14.9666 316.832 16.2608 316.832 17.7952V45.939ZM342.045 122.152V137.003C342.045 138.018 341.187 138.876 340.172 138.876H13.0988C12.084 138.876 11.2261 138.018 11.2261 137.003V59.0378C11.2261 58.023 12.084 57.1651 13.0988 57.1651H340.172C341.187 57.1651 342.045 58.023 342.045 59.0378V66.1825C342.043 66.2369 342.042 66.2913 342.041 66.3459C342.041 66.3827 342.04 66.4196 342.04 66.4565L342.04 66.5064L342.04 121.791C342.04 121.912 342.041 122.032 342.045 122.152ZM353.271 121.925C353.342 122.88 354.168 123.664 355.139 123.664H382.42C383.434 123.664 384.292 122.806 384.292 121.791V66.5431C384.292 65.5284 383.434 64.6705 382.42 64.6705H355.139C354.168 64.6705 353.342 65.4545 353.271 66.41V121.925ZM395.518 105.227H419.976V83.1029H395.518V105.227ZM444.399 105.227H431.202V83.1029H444.399C445.933 83.1029 447.227 84.3971 447.227 85.9315V102.403C447.227 103.933 445.933 105.227 444.399 105.227Z" fill="white"/>
<path d="M88.2844 179.648L48.0006 150.102H309.558L301.714 175.148C301.547 175.687 301.459 176.255 301.459 176.824C301.459 178.354 300.164 179.648 298.63 179.648H88.2844Z" fill="white"/>
<path fill-rule="evenodd" clip-rule="evenodd" d="M342.045 137.003V122.152C342.041 122.032 342.04 121.912 342.04 121.791L342.04 66.5064L342.04 66.4565C342.04 66.4196 342.041 66.3827 342.041 66.3459C342.042 66.2913 342.043 66.2369 342.045 66.1825V59.0378C342.045 58.023 341.187 57.1651 340.172 57.1651H13.0988C12.084 57.1651 11.2261 58.023 11.2261 59.0378V137.003C11.2261 138.018 12.084 138.876 13.0988 138.876H340.172C341.187 138.876 342.045 138.018 342.045 137.003ZM294.753 85.8629H58.5132C55.4101 85.8629 52.9001 83.348 52.9001 80.2498C52.9001 77.1516 55.415 74.6367 58.5132 74.6367H294.753C297.856 74.6367 300.366 77.1516 300.366 80.2498C300.366 83.348 297.856 85.8629 294.753 85.8629ZM58.5132 121.404H294.753C297.856 121.404 300.366 118.889 300.366 115.791C300.366 112.693 297.856 110.178 294.753 110.178H58.5132C55.415 110.178 52.9001 112.693 52.9001 115.791C52.9001 118.889 55.4101 121.404 58.5132 121.404Z" fill="white"/>
<path d="M104.609 327.313V347.02C104.609 348.555 105.903 349.849 107.438 349.849H164.77C166.304 349.849 167.598 348.555 167.598 347.02V327.313H104.609Z" fill="white"/>
<path d="M355.139 123.664C354.168 123.664 353.342 122.88 353.271 121.925V66.41C353.342 65.4545 354.168 64.6705 355.139 64.6705H382.42C383.434 64.6705 384.292 65.5284 384.292 66.5431V121.791C384.292 122.806 383.434 123.664 382.42 123.664H355.139Z" fill="white"/>
<path d="M113.027 190.879H117.835C117.835 205.963 106.933 218.547 92.5938 221.165L91.3437 316.087H188.423V312.048L174.045 302.464C172.481 301.425 171.544 299.67 171.544 297.792V190.874H113.028L113.027 190.879Z" fill="white"/>
</svg>
