<svg width="380" height="361" viewBox="0 0 380 361" fill="none" xmlns="http://www.w3.org/2000/svg">
<path d="M0 114C0 78.173 0 60.2597 11.1299 49.1297C11.1299 49.1297 11.13 49.1297 11.13 49.1297C22.2599 37.9998 40.1733 37.9998 76 37.9998H304C339.827 37.9998 357.74 37.9998 368.87 49.1297C368.87 49.1297 368.87 49.1297 368.87 49.1297C380 60.2597 380 78.173 380 114C380 122.956 380 127.435 377.218 130.217C377.218 130.217 377.218 130.217 377.218 130.217C374.435 133 369.957 133 361 133H19C10.0433 133 5.56498 133 2.78249 130.217C2.78249 130.217 2.78249 130.217 2.78248 130.217C0 127.435 0 122.956 0 114Z" fill="white"/>
<path fill-rule="evenodd" clip-rule="evenodd" d="M11.1299 349.87C0 338.74 0 320.827 0 285V190C0 181.043 0 176.565 2.78249 173.782C5.56497 171 10.0433 171 19 171H361C369.957 171 374.435 171 377.218 173.782C380 176.565 380 181.043 380 190V285C380 320.827 380 338.74 368.87 349.87C357.74 361 339.827 361 304 361H76C40.1733 361 22.2599 361 11.1299 349.87ZM114 247C103.507 247 95 255.507 95 266C95 276.493 103.507 285 114 285H266C276.493 285 285 276.493 285 266C285 255.507 276.493 247 266 247H114Z" fill="white"/>
<path d="M95 0L95 57" stroke="white" stroke-width="38" stroke-linecap="round"/>
<path d="M285 0L285 57" stroke="white" stroke-width="38" stroke-linecap="round"/>
</svg>
