<svg width="398" height="361" viewBox="0 0 398 361" fill="none" xmlns="http://www.w3.org/2000/svg">
<path d="M20 138.228C20 117.898 36.4811 101.417 56.8116 101.417V101.417C70.7549 101.417 83.5014 93.5389 89.737 81.0677L106.035 48.4722C108.218 44.106 109.309 41.9228 110.547 40.024C117.005 30.1167 127.544 23.6037 139.293 22.2579C141.545 22 143.986 22 148.868 22H248.507C253.389 22 255.83 22 258.082 22.2579C269.831 23.6037 280.369 30.1167 286.828 40.024C288.066 41.9228 289.157 44.106 291.34 48.4722L307.638 81.0677C313.874 93.5389 326.62 101.417 340.563 101.417V101.417C360.894 101.417 377.375 117.898 377.375 138.228V237.56C377.375 277.362 377.375 297.264 368.245 311.793C363.485 319.37 357.078 325.776 349.502 330.537C334.972 339.667 315.071 339.667 275.268 339.667H122.107C82.3043 339.667 62.4028 339.667 47.8733 330.537C40.2968 325.776 33.8902 319.37 29.1295 311.793C20 297.264 20 277.362 20 237.56V138.228Z" stroke="white" stroke-width="39.7083"/>
<circle cx="198.687" cy="200.687" r="59.5625" stroke="white" stroke-width="39.7083"/>
</svg>
