<svg width="288" height="357" viewBox="0 0 288 357" fill="none" xmlns="http://www.w3.org/2000/svg">
<path fill-rule="evenodd" clip-rule="evenodd" d="M287.572 213.429C287.572 292.721 223.292 357 144 357C64.7078 357 0.428711 292.721 0.428711 213.429C0.428711 134.136 64.7078 69.8572 144 69.8572C223.292 69.8572 287.572 134.136 287.572 213.429ZM144 293.19C188.052 293.19 223.762 257.48 223.762 213.429C223.762 169.377 188.052 133.667 144 133.667C99.949 133.667 64.2383 169.377 64.2383 213.429C64.2383 257.48 99.949 293.19 144 293.19ZM144 325.095C205.672 325.095 255.667 275.1 255.667 213.429C255.667 151.757 205.672 101.762 144 101.762C82.3284 101.762 32.3336 151.757 32.3336 213.429C32.3336 275.1 82.3284 325.095 144 325.095ZM159.953 165.571C159.953 156.761 152.811 149.619 144 149.619C135.19 149.619 128.048 156.761 128.048 165.571V213.429C128.048 222.239 135.19 229.381 144 229.381C152.811 229.381 159.953 222.239 159.953 213.429V165.571Z" fill="white"/>
<path d="M231.738 109.738L255.667 85.8096" stroke="white" stroke-width="31.9048" stroke-linecap="round"/>
<path d="M113.182 27.9118C115 26.2158 119.006 24.7171 124.578 23.6483C130.15 22.5794 136.977 22 144 22C151.023 22 157.85 22.5794 163.422 23.6483C168.994 24.7171 173 26.2158 174.818 27.9118" stroke="white" stroke-width="31.9048" stroke-linecap="round"/>
</svg>
