<svg width="17" height="12" viewBox="0 0 17 12" fill="none" xmlns="http://www.w3.org/2000/svg">
<path fill-rule="evenodd" clip-rule="evenodd" d="M16.2298 4.57541C15.0801 2.85499 12.6699 0.200684 8.7429 0.200684C4.81594 0.200684 2.40574 2.85499 1.25598 4.57541C0.870147 5.15274 0.677231 5.4414 0.69479 5.97471C0.712349 6.50802 0.933803 6.79635 1.37671 7.37302C2.69564 9.09024 5.32927 11.8203 8.7429 11.8203C12.1565 11.8203 14.7902 9.09024 16.1091 7.37302C16.552 6.79635 16.7735 6.50802 16.791 5.97471C16.8086 5.4414 16.6157 5.15274 16.2298 4.57541ZM8.74292 9.33035C6.9094 9.33035 5.42304 7.84399 5.42304 6.01047C5.42304 4.17695 6.9094 2.69059 8.74292 2.69059C10.5764 2.69059 12.0628 4.17695 12.0628 6.01047C12.0628 7.84399 10.5764 9.33035 8.74292 9.33035Z" fill="white"/>
</svg>
