<svg viewBox="0 0 286 358" fill="none" xmlns="http://www.w3.org/2000/svg">
<path fill-rule="evenodd" clip-rule="evenodd" d="M150.108 282.214C176.589 268.478 268 214.577 268 125C268 55.9644 212.036 0 143 0C73.9644 0 18 55.9644 18 125C18 214.577 109.411 268.478 135.892 282.214C140.408 284.556 145.592 284.556 150.108 282.214ZM143 178.571C172.587 178.571 196.571 154.587 196.571 125C196.571 95.4133 172.587 71.4286 143 71.4286C113.413 71.4286 89.4285 95.4133 89.4285 125C89.4285 154.587 113.413 178.571 143 178.571Z" fill="white"/>
<path d="M251.253 258.929C262.224 267.072 268 276.31 268 285.714C268 295.118 262.224 304.356 251.253 312.5C240.282 320.644 224.502 327.407 205.5 332.108C186.498 336.81 164.942 339.286 143 339.286C121.058 339.286 99.5024 336.81 80.5 332.108C61.4976 327.407 45.7179 320.644 34.7468 312.5C23.7758 304.356 18 295.118 18 285.714C18 276.311 23.7758 267.072 34.7468 258.929" stroke="white" stroke-width="35.7143" stroke-linecap="round"/>
</svg>