<svg width="293" height="326" viewBox="0 0 293 326" fill="none" xmlns="http://www.w3.org/2000/svg">
<path d="M211.421 98.3158V82.0526C211.421 46.1251 182.296 17 146.368 17V17C110.441 17 81.3157 46.1251 81.3157 82.0526V98.3158" stroke="white" stroke-width="32.5263" stroke-linecap="round"/>
<path fill-rule="evenodd" clip-rule="evenodd" d="M14.2901 96.3428C0 110.633 0 133.633 0 179.632V195.895C0 257.227 0 287.893 19.0535 306.947C38.1069 326 68.773 326 130.105 326H162.632C223.964 326 254.63 326 273.683 306.947C292.737 287.893 292.737 257.227 292.737 195.895V179.632C292.737 133.633 292.737 110.633 278.447 96.3428C264.157 82.0527 241.157 82.0527 195.158 82.0527H97.5789C51.5798 82.0527 28.5802 82.0527 14.2901 96.3428ZM146.368 212.158C155.35 212.158 162.631 204.877 162.631 195.895C162.631 186.913 155.35 179.632 146.368 179.632C137.386 179.632 130.104 186.913 130.104 195.895C130.104 204.877 137.386 212.158 146.368 212.158ZM195.157 195.895C195.157 217.138 181.581 235.21 162.632 241.908V277.211H130.106V241.909C111.155 235.211 97.5782 217.139 97.5782 195.895C97.5782 168.949 119.422 147.106 146.368 147.106C173.313 147.106 195.157 168.949 195.157 195.895Z" fill="white"/>
</svg>
