<svg viewBox="0 0 338 357" fill="none" xmlns="http://www.w3.org/2000/svg">
<path fill-rule="evenodd" clip-rule="evenodd" d="M338 75.3333H0V131.667C20.7414 131.667 37.5556 148.481 37.5556 169.222V244.333C37.5556 297.445 37.5556 324.001 54.0552 340.5C70.5549 357 97.1107 357 150.222 357H187.778C240.889 357 267.445 357 283.945 340.5C300.444 324.001 300.444 297.445 300.444 244.333V169.222C300.444 148.481 317.259 131.667 338 131.667V75.3333ZM140.834 169.222C140.834 158.851 132.426 150.444 122.056 150.444C111.685 150.444 103.278 158.851 103.278 169.222V263.111C103.278 273.482 111.685 281.889 122.056 281.889C132.426 281.889 140.834 273.482 140.834 263.111V169.222ZM234.722 169.222C234.722 158.851 226.315 150.444 215.945 150.444C205.574 150.444 197.167 158.851 197.167 169.222V263.111C197.167 273.482 205.574 281.889 215.945 281.889C226.315 281.889 234.722 273.482 234.722 263.111V169.222Z" fill="white"/>
<path d="M132.724 25.9589C134.864 23.9625 139.579 22.1984 146.138 20.9402C152.697 19.682 160.733 19 169 19C177.267 19 185.304 19.682 191.862 20.9402C198.421 22.1984 203.136 23.9625 205.276 25.9589" stroke="white" stroke-width="37.5556" stroke-linecap="round"/>
</svg>